<svg width="160" height="160" viewBox="0 0 160 160" fill="none" xmlns="http://www.w3.org/2000/svg">
  <defs>
    <clipPath id="clip">
      <circle cx="80" cy="80" r="78"/>
    </clipPath>
    <radialGradient id="skin" cx="38%" cy="36%" r="62%">
      <stop stop-color="#D9D9D9"/>
      <stop offset=".55" stop-color="#9C9C9C"/>
      <stop offset="1" stop-color="#333"/>
    </radialGradient>
    <linearGradient id="shade" x1="0" y1="0" x2="160" y2="160">
      <stop stop-color="#222"/>
      <stop offset=".45" stop-color="#888"/>
      <stop offset="1" stop-color="#111"/>
    </linearGradient>
  </defs>
  <g clip-path="url(#clip)">
    <rect width="160" height="160" fill="url(#shade)"/>
    <path d="M53 83C43 64 49 37 71 26C94 15 122 27 133 52C143 76 133 101 112 110C89 120 64 105 53 83Z" fill="url(#skin)"/>
    <path d="M38 125C52 106 72 97 96 101C118 105 133 119 142 143H24C27 136 32 130 38 125Z" fill="#1E1E1E"/>
    <path d="M18 91C45 88 69 96 91 114C71 123 47 125 18 121V91Z" fill="#AFAFAF"/>
    <path d="M74 72C78 70 82 70 86 72" stroke="#1A1A1A" stroke-width="3" stroke-linecap="round"/>
    <ellipse cx="72" cy="81" rx="3" ry="4" fill="#151515"/>
    <path d="M103 79C111 82 118 82 124 79" stroke="#232323" stroke-width="4" stroke-linecap="round"/>
    <path d="M88 88C85 94 85 99 88 103" stroke="#444" stroke-width="3" stroke-linecap="round"/>
    <path d="M78 111C88 116 99 116 111 111" stroke="#222" stroke-width="3" stroke-linecap="round"/>
    <path d="M105 119C105 104 110 95 121 91C130 88 139 92 147 103V160H95C102 147 106 133 105 119Z" fill="#D0D0D0"/>
    <path d="M51 90C60 92 68 97 76 106C61 109 45 107 27 101" stroke="#EFEFEF" stroke-width="5" stroke-linecap="round"/>
  </g>
  <circle cx="80" cy="80" r="78" stroke="white" stroke-width="4"/>
</svg>
