<?xml version="1.0" encoding="UTF-8"?>
<svg version="1.1" xmlns="http://www.w3.org/2000/svg" width="352" height="352">
<path d="M0 0 C4.39036838 4.0648114 6.39334692 8.73919039 6.84375 14.70703125 C7.04824306 23.73865107 6.65621947 32.73962117 6.15405273 41.75415039 C6.07171553 43.27305081 5.99528322 44.79228207 5.92456055 46.31176758 C5.82055536 48.54465127 5.69930621 50.77602189 5.57421875 53.0078125 C5.50614014 54.31919189 5.43806152 55.63057129 5.36791992 56.98168945 C4.78672876 61.1122884 3.64273581 63.97285977 1.84375 67.70703125 C2.64594971 67.75714355 3.44814941 67.80725586 4.2746582 67.85888672 C7.90251428 68.09070365 11.52931779 68.33619973 15.15625 68.58203125 C16.41888672 68.66066406 17.68152344 68.73929687 18.98242188 68.8203125 C20.79516602 68.94599609 20.79516602 68.94599609 22.64453125 69.07421875 C23.75997314 69.14753418 24.87541504 69.22084961 26.0246582 69.29638672 C28.84375 69.70703125 28.84375 69.70703125 31.84375 71.70703125 C33.52676965 71.08279805 35.19223257 70.4103892 36.84375 69.70703125 C39.41673279 69.54676819 39.41673279 69.54676819 42.18139648 69.67602539 C43.74343056 69.74213768 43.74343056 69.74213768 45.33702087 69.80958557 C46.45170242 69.86984421 47.56638397 69.93010284 48.71484375 69.9921875 C49.86992935 70.04974716 51.02501495 70.10730682 52.21510315 70.16661072 C54.65552149 70.29278757 57.09562706 70.42514418 59.53540039 70.56323242 C63.26303155 70.76852789 66.99117 70.93686696 70.72070312 71.10351562 C73.09387257 71.23080796 75.46692565 71.36029268 77.83984375 71.4921875 C79.50882973 71.56132103 79.50882973 71.56132103 81.21153259 71.6318512 C87.78532198 72.04811439 91.30501522 72.81662456 95.84375 77.70703125 C91.13434638 102.61406145 86.3301679 127.5017999 81.3729248 152.36071777 C80.8599707 154.93400671 80.34798231 157.50748838 79.83703613 160.08117676 C78.42470705 167.18973724 76.99294314 174.29378965 75.52661133 181.39141846 C75.07024193 183.60730644 74.61892985 185.82424183 74.17260742 188.04217529 C73.54370715 191.15178307 72.89247468 194.25583454 72.234375 197.359375 C72.05154968 198.28271133 71.86872437 199.20604767 71.68035889 200.15736389 C71.49741272 200.99609543 71.31446655 201.83482697 71.12597656 202.69897461 C70.89808441 203.79428749 70.89808441 203.79428749 70.66558838 204.91172791 C69.84375 206.70703125 69.84375 206.70703125 67.99371338 207.9720459 C62.123455 209.97884935 54.54785339 206.9894967 48.75 205.421875 C47.91786987 205.2013295 47.08573975 204.980784 46.22839355 204.7535553 C43.59884884 204.05543609 40.97130096 203.35011305 38.34375 202.64453125 C36.54960677 202.16683819 34.75533704 201.68962 32.9609375 201.21289062 C28.58706031 200.04975438 24.21495765 198.88015823 19.84375 197.70703125 C19.73892667 199.47812838 19.6341896 201.24923065 19.52983093 203.02035522 C19.43857462 204.56371583 19.34652603 206.10702977 19.2537384 207.65029907 C19.03817416 211.26225745 18.83629192 214.87247659 18.67333984 218.48730469 C17.77279846 237.95096958 14.31809382 254.96128409 3.84375 271.70703125 C0.84375 273.70703125 0.84375 273.70703125 -1.86254883 273.50927734 C-5.6560127 272.58530416 -9.23303581 271.30520599 -12.85546875 269.87109375 C-13.93076591 269.45106583 -13.93076591 269.45106583 -15.02778625 269.02255249 C-16.53409481 268.43206418 -18.03922258 267.83855572 -19.54321289 267.2421875 C-21.84329608 266.33221083 -24.14880168 265.43711402 -26.45507812 264.54296875 C-27.92222558 263.96573402 -29.3890347 263.38763845 -30.85546875 262.80859375 C-31.54299728 262.54285553 -32.23052582 262.27711731 -32.93888855 262.00332642 C-37.84999179 260.03598437 -37.84999179 260.03598437 -39.67504883 258.07568359 C-42.07356166 255.85942136 -44.98519949 256.10307438 -48.15625 255.70703125 C-50.35459377 254.96674391 -52.52907515 254.15229677 -54.67578125 253.2734375 C-55.86236328 252.78939453 -57.04894531 252.30535156 -58.27148438 251.80664062 C-58.87822998 251.55422607 -59.48497559 251.30181152 -60.11010742 251.04174805 C-61.97764967 250.26583367 -63.85055881 249.50418175 -65.72460938 248.74414062 C-74.88730577 244.97597548 -74.88730577 244.97597548 -77.15625 242.70703125 C-77.57312012 240.7543335 -77.57312012 240.7543335 -77.81054688 238.33105469 C-77.90404419 237.42119812 -77.9975415 236.51134155 -78.09387207 235.57391357 C-78.2330304 234.08519745 -78.2330304 234.08519745 -78.375 232.56640625 C-78.53011047 231.01750702 -78.53011047 231.01750702 -78.68835449 229.43731689 C-79.01929926 226.11131569 -79.33783484 222.78425293 -79.65625 219.45703125 C-79.87030083 217.29158814 -80.08513628 215.12622244 -80.30078125 212.9609375 C-80.83134745 207.6061415 -81.3450617 202.24989729 -81.85205078 196.89282227 C-82.15872733 193.6810869 -82.47530403 190.47043088 -82.79296875 187.25976562 C-82.98729109 185.24742593 -83.18131517 183.2350574 -83.375 181.22265625 C-83.46914185 180.28959656 -83.56328369 179.35653687 -83.66027832 178.39520264 C-83.74080444 177.54194397 -83.82133057 176.6886853 -83.90429688 175.80957031 C-84.0139679 174.68859955 -84.0139679 174.68859955 -84.12585449 173.54498291 C-84.15625 171.70703125 -84.15625 171.70703125 -83.15625 169.70703125 C-84.17750977 169.57417725 -85.19876953 169.44132324 -86.25097656 169.30444336 C-92.24639832 168.38728926 -98.04154333 166.79634513 -103.90625 165.26953125 C-105.13730469 164.95693359 -106.36835937 164.64433594 -107.63671875 164.32226562 C-108.81363281 164.01740234 -109.99054688 163.71253906 -111.203125 163.3984375 C-112.27401367 163.12201416 -113.34490234 162.84559082 -114.44824219 162.56079102 C-117.15625 161.70703125 -117.15625 161.70703125 -120.15625 159.70703125 C-121.01057434 156.80519104 -121.01057434 156.80519104 -121.67504883 153.10375977 C-121.79763219 152.43680619 -121.92021555 151.76985262 -122.04651356 151.08268833 C-122.43147878 148.95981313 -122.79624619 146.83427112 -123.15625 144.70703125 C-123.2703207 144.04553448 -123.3843914 143.3840377 -123.50191879 142.70249557 C-124.32248249 137.92711977 -125.09378708 133.14444346 -125.85546875 128.359375 C-126.09768346 126.84817102 -126.34002102 125.33698673 -126.58247375 123.82582092 C-127.08442135 120.69254803 -127.58411167 117.55892545 -128.08227539 114.42504883 C-128.71924861 110.4198695 -129.36323958 106.41585285 -130.00902081 102.41208553 C-130.50897998 99.30616889 -131.00463597 96.19957691 -131.49906349 93.09277534 C-131.73481789 91.61542912 -131.972037 90.13831582 -132.21079063 88.66145134 C-132.5430303 86.60302779 -132.86929031 84.54373937 -133.1940918 82.48413086 C-133.380457 81.31692001 -133.5668222 80.14970917 -133.75883484 78.9471283 C-134.77782308 70.63939088 -134.77782308 70.63939088 -132.15625 66.70703125 C-129.65698242 65.99926758 -129.65698242 65.99926758 -126.51171875 65.5390625 C-125.35865234 65.36826172 -124.20558594 65.19746094 -123.01757812 65.02148438 C-121.80521484 64.85583984 -120.59285156 64.69019531 -119.34375 64.51953125 C-117.58901367 64.25366211 -117.58901367 64.25366211 -115.79882812 63.98242188 C-103.17485924 62.17700612 -91.01286045 62.63863903 -78.34375 63.70703125 C-77.16232422 63.80242187 -75.98089844 63.8978125 -74.76367188 63.99609375 C-71.89411929 64.22844619 -69.02503997 64.46547599 -66.15625 64.70703125 C-66.28902344 63.79566406 -66.42179687 62.88429688 -66.55859375 61.9453125 C-68.11265296 50.54509711 -68.78156492 39.20199936 -69.15625 27.70703125 C-69.18493164 26.99643555 -69.21361328 26.28583984 -69.24316406 25.55371094 C-69.58685585 16.73518884 -69.64638815 8.95179386 -63.84375 1.89453125 C-62.5134375 0.81171875 -62.5134375 0.81171875 -61.15625 -0.29296875 C-60.310625 -1.01484375 -59.465 -1.73671875 -58.59375 -2.48046875 C-43.94772839 -10.20291651 -13.30246022 -9.90454918 0 0 Z " fill="#948951" transform="translate(207.15625,27.29296875)"/>
<path d="M0 0 C4.39036838 4.0648114 6.39334692 8.73919039 6.84375 14.70703125 C7.04824306 23.73865107 6.65621947 32.73962117 6.15405273 41.75415039 C6.07171553 43.27305081 5.99528322 44.79228207 5.92456055 46.31176758 C5.82055536 48.54465127 5.69930621 50.77602189 5.57421875 53.0078125 C5.50614014 54.31919189 5.43806152 55.63057129 5.36791992 56.98168945 C4.78672876 61.1122884 3.64273581 63.97285977 1.84375 67.70703125 C2.64594971 67.75714355 3.44814941 67.80725586 4.2746582 67.85888672 C7.90251428 68.09070365 11.52931779 68.33619973 15.15625 68.58203125 C16.41888672 68.66066406 17.68152344 68.73929687 18.98242188 68.8203125 C20.79516602 68.94599609 20.79516602 68.94599609 22.64453125 69.07421875 C23.75997314 69.14753418 24.87541504 69.22084961 26.0246582 69.29638672 C28.84375 69.70703125 28.84375 69.70703125 31.84375 71.70703125 C33.52676965 71.08279805 35.19223257 70.4103892 36.84375 69.70703125 C39.41673279 69.54676819 39.41673279 69.54676819 42.18139648 69.67602539 C43.74343056 69.74213768 43.74343056 69.74213768 45.33702087 69.80958557 C46.45170242 69.86984421 47.56638397 69.93010284 48.71484375 69.9921875 C49.86992935 70.04974716 51.02501495 70.10730682 52.21510315 70.16661072 C54.65552149 70.29278757 57.09562706 70.42514418 59.53540039 70.56323242 C63.26303155 70.76852789 66.99117 70.93686696 70.72070312 71.10351562 C73.09387257 71.23080796 75.46692565 71.36029268 77.83984375 71.4921875 C79.50882973 71.56132103 79.50882973 71.56132103 81.21153259 71.6318512 C87.78532198 72.04811439 91.30501522 72.81662456 95.84375 77.70703125 C91.13434638 102.61406145 86.3301679 127.5017999 81.3729248 152.36071777 C80.8599707 154.93400671 80.34798231 157.50748838 79.83703613 160.08117676 C78.42470705 167.18973724 76.99294314 174.29378965 75.52661133 181.39141846 C75.07024193 183.60730644 74.61892985 185.82424183 74.17260742 188.04217529 C73.54370715 191.15178307 72.89247468 194.25583454 72.234375 197.359375 C72.05154968 198.28271133 71.86872437 199.20604767 71.68035889 200.15736389 C71.49741272 200.99609543 71.31446655 201.83482697 71.12597656 202.69897461 C70.89808441 203.79428749 70.89808441 203.79428749 70.66558838 204.91172791 C69.84375 206.70703125 69.84375 206.70703125 67.98236084 207.9690094 C61.33764093 210.26206262 52.33384887 206.39498971 45.84375 204.64453125 C44.78285156 204.36287109 43.72195312 204.08121094 42.62890625 203.79101562 C40.03257599 203.10099992 37.43761689 202.40623922 34.84375 201.70703125 C34.84375 201.37703125 34.84375 201.04703125 34.84375 200.70703125 C40.80660704 200.38558343 45.7595659 201.55672022 51.46875 203.20703125 C58.52932116 205.35378916 58.52932116 205.35378916 65.84375 205.70703125 C67.49333991 200.23540043 68.73538654 194.74926875 69.84375 189.14453125 C70.01817627 188.27135254 70.19260254 187.39817383 70.37231445 186.49853516 C71.62577374 180.10759222 72.63566923 173.72449533 73.44921875 167.26171875 C73.84375 164.70703125 73.84375 164.70703125 74.84375 162.70703125 C74.97842133 160.91739895 75.0755935 159.12491013 75.15625 157.33203125 C75.62431841 150.49974238 76.9190265 143.98062102 78.33129883 137.2878418 C79.41506872 132.0748645 80.25398682 126.93646029 80.84375 121.64453125 C81.61650626 114.73187525 82.94559942 108.03660327 84.5234375 101.26342773 C85.57400141 96.61995516 86.03348213 92.46930769 85.84375 87.70703125 C74.9954063 86.6447976 64.1469208 85.63816899 53.28125 84.76953125 C45.97784778 84.18396955 38.70090345 83.48509215 31.421875 82.6496582 C4.63902101 79.59061304 -22.3432418 77.84569348 -49.28588867 77.05029297 C-57.64746159 76.78493087 -65.92578026 76.09660374 -74.2421875 75.20703125 C-80.20238697 74.57141116 -86.17883548 74.14505656 -92.15625 73.70703125 C-92.08631836 74.27993896 -92.01638672 74.85284668 -91.94433594 75.44311523 C-88.23326035 106.11318607 -85.18212654 136.87829616 -83.15625 167.70703125 C-85.85264831 169.58140287 -87.01073139 169.7289293 -90.31665039 169.23144531 C-91.53344482 168.89854492 -92.75023926 168.56564453 -94.00390625 168.22265625 C-94.65701279 168.04700134 -95.31011932 167.87134644 -95.98301697 167.69036865 C-97.36071562 167.31689991 -98.73656427 166.93654764 -100.1105957 166.54980469 C-102.21109982 165.95918234 -104.31650613 165.38997579 -106.42382812 164.82421875 C-116.6855466 162.02083351 -116.6855466 162.02083351 -120.15625 159.70703125 C-121.01057434 156.80519104 -121.01057434 156.80519104 -121.67504883 153.10375977 C-121.79763219 152.43680619 -121.92021555 151.76985262 -122.04651356 151.08268833 C-122.43147878 148.95981313 -122.79624619 146.83427112 -123.15625 144.70703125 C-123.2703207 144.04553448 -123.3843914 143.3840377 -123.50191879 142.70249557 C-124.32248249 137.92711977 -125.09378708 133.14444346 -125.85546875 128.359375 C-126.09768346 126.84817102 -126.34002102 125.33698673 -126.58247375 123.82582092 C-127.08442135 120.69254803 -127.58411167 117.55892545 -128.08227539 114.42504883 C-128.71924861 110.4198695 -129.36323958 106.41585285 -130.00902081 102.41208553 C-130.50897998 99.30616889 -131.00463597 96.19957691 -131.49906349 93.09277534 C-131.73481789 91.61542912 -131.972037 90.13831582 -132.21079063 88.66145134 C-132.5430303 86.60302779 -132.86929031 84.54373937 -133.1940918 82.48413086 C-133.380457 81.31692001 -133.5668222 80.14970917 -133.75883484 78.9471283 C-134.77782308 70.63939088 -134.77782308 70.63939088 -132.15625 66.70703125 C-129.65698242 65.99926758 -129.65698242 65.99926758 -126.51171875 65.5390625 C-125.35865234 65.36826172 -124.20558594 65.19746094 -123.01757812 65.02148438 C-121.80521484 64.85583984 -120.59285156 64.69019531 -119.34375 64.51953125 C-117.58901367 64.25366211 -117.58901367 64.25366211 -115.79882812 63.98242188 C-103.17485924 62.17700612 -91.01286045 62.63863903 -78.34375 63.70703125 C-77.16232422 63.80242187 -75.98089844 63.8978125 -74.76367188 63.99609375 C-71.89411929 64.22844619 -69.02503997 64.46547599 -66.15625 64.70703125 C-66.28902344 63.79566406 -66.42179687 62.88429688 -66.55859375 61.9453125 C-68.11265296 50.54509711 -68.78156492 39.20199936 -69.15625 27.70703125 C-69.18493164 26.99643555 -69.21361328 26.28583984 -69.24316406 25.55371094 C-69.58685585 16.73518884 -69.64638815 8.95179386 -63.84375 1.89453125 C-62.5134375 0.81171875 -62.5134375 0.81171875 -61.15625 -0.29296875 C-60.310625 -1.01484375 -59.465 -1.73671875 -58.59375 -2.48046875 C-43.94772839 -10.20291651 -13.30246022 -9.90454918 0 0 Z " fill="#9A8F57" transform="translate(207.15625,27.29296875)"/>
<path d="M0 0 C7.65540396 -0.25565356 15.06730279 0.14109173 22.671875 0.9453125 C32.56376498 1.93721373 42.43659603 2.49411761 52.36801147 2.8916626 C57.01415895 3.07847043 61.65945102 3.28408438 66.3046875 3.4921875 C67.21874863 3.53310516 68.13280975 3.57402283 69.0745697 3.61618042 C81.06651405 4.1679382 93.03435674 5.03754945 105 6 C105 6.66 105 7.32 105 8 C105.66 8 106.32 8 107 8 C107.24877131 14.92413491 106.88374701 21.63519847 106.0625 28.5 C104.92564862 38.11391669 104.59554399 47.71926764 104.34204102 57.39257812 C104.18634922 63.01808335 103.87505688 68.43329202 103 74 C102.75489197 76.97626279 102.59337734 79.95538752 102.4375 82.9375 C102.37272461 84.10635742 102.37272461 84.10635742 102.30664062 85.29882812 C102.20171923 87.19907117 102.1004755 89.09951669 102 91 C101.34 91 100.68 91 100 91 C100 99.25 100 107.5 100 116 C99.34 116 98.68 116 98 116 C98 116.66 98 117.32 98 118 C90.04542941 117.96274206 82.86392213 115.96402937 75.31518555 113.72070312 C66.46275401 111.09685434 57.55402121 108.72137267 48.625 106.375 C47.19782649 105.9993824 45.77066161 105.62373198 44.34350586 105.24804688 C43.65040817 105.06570496 42.95731049 104.88336304 42.24320984 104.69549561 C40.8620728 104.33209557 39.48097912 103.96853068 38.09992981 103.60479736 C34.71447078 102.71326718 31.32827851 101.82479069 27.94042969 100.94238281 C26.63473648 100.59972041 25.32907125 100.25695139 24.0234375 99.9140625 C22.88567871 99.61709473 21.74791992 99.32012695 20.57568359 99.01416016 C16.33467895 97.81129703 12.1701833 96.42642575 8 95 C7.95577911 94.3187204 7.91155823 93.6374408 7.86599731 92.93551636 C6.63840229 74.29716065 4.97466132 55.73114702 3.08129883 37.14984131 C2.59471483 32.37397622 2.11033635 27.59789473 1.63137817 22.82125854 C1.37833547 20.30120875 1.12252588 17.78143472 0.86349487 15.26199341 C0.74982574 14.13155609 0.63615662 13.00111877 0.51904297 11.83642578 C0.41848602 10.85054474 0.31792908 9.8646637 0.21432495 8.84890747 C-0.00838662 5.88852119 -0.0365319 2.96760697 0 0 Z " fill="#90781C" transform="translate(115,101)"/>
<path d="M0 0 C5.2277775 0.39634153 10.11637306 1.76353703 15.125 3.21875 C16.72487562 3.67323177 18.32515326 4.12630014 19.92578125 4.578125 C20.75674316 4.81273437 21.58770508 5.04734375 22.44384766 5.2890625 C26.72124913 6.47872755 31.01608349 7.60005437 35.3125 8.71875 C36.18704834 8.9468335 37.06159668 9.17491699 37.96264648 9.40991211 C40.64147519 10.10772531 43.32066996 10.80411439 46 11.5 C49.56294558 12.42538154 53.12538937 13.35266 56.6875 14.28125 C57.55181641 14.50538574 58.41613281 14.72952148 59.30664062 14.96044922 C63.56778692 16.07229692 67.81178211 17.22221605 72.0390625 18.45703125 C72.84384033 18.68998901 73.64861816 18.92294678 74.4777832 19.16296387 C75.97647608 19.59997161 77.47269417 20.04561116 78.96557617 20.5020752 C82.57199008 21.55124886 85.61896891 22.08500676 89.38671875 21.94726562 C90.57910156 21.96466797 91.77148438 21.98207031 93 22 C93.99 23.485 93.99 23.485 95 25 C98.55672179 26.2188121 98.55672179 26.2188121 102 27 C102.18342697 52.72088872 100.59535417 79.90924524 86 102 C83 104 83 104 80.29370117 103.80224609 C76.5002373 102.87827291 72.92321419 101.59817474 69.30078125 100.1640625 C68.58391647 99.88404388 67.8670517 99.60402527 67.12846375 99.31552124 C65.62215519 98.72503293 64.11702742 98.13152447 62.61303711 97.53515625 C60.31295392 96.62517958 58.00744832 95.73008277 55.70117188 94.8359375 C54.23402442 94.25870277 52.7672153 93.6806072 51.30078125 93.1015625 C50.61325272 92.83582428 49.92572418 92.57008606 49.21736145 92.29629517 C44.30625821 90.32895312 44.30625821 90.32895312 42.48120117 88.36865234 C40.08268834 86.15239011 37.17105051 86.39604313 34 86 C31.80165623 85.25971266 29.62717485 84.44526552 27.48046875 83.56640625 C25.7005957 82.8403418 25.7005957 82.8403418 23.88476562 82.09960938 C23.27802002 81.84719482 22.67127441 81.59478027 22.04614258 81.3347168 C20.17860033 80.55880242 18.30569119 79.7971505 16.43164062 79.03710938 C7.26894423 75.26894423 7.26894423 75.26894423 5 73 C4.58312988 71.04730225 4.58312988 71.04730225 4.34570312 68.62402344 C4.25220581 67.71416687 4.1587085 66.8043103 4.06237793 65.86688232 C3.96960571 64.87440491 3.8768335 63.88192749 3.78125 62.859375 C3.67784302 61.82677551 3.57443604 60.79417603 3.46789551 59.73028564 C3.13695074 56.40428444 2.81841516 53.07722168 2.5 49.75 C2.28594917 47.58455689 2.07111372 45.41919119 1.85546875 43.25390625 C1.42968575 38.95991871 1.01505559 34.6650725 0.609375 30.36914062 C0.20546569 26.09432444 -0.22396731 21.82315657 -0.671875 17.55273438 C-0.8751225 15.54037695 -1.07825287 13.52800769 -1.28125 11.515625 C-1.38377075 10.58256531 -1.4862915 9.64950562 -1.59191895 8.68817139 C-1.67566772 7.83491272 -1.7594165 6.98165405 -1.84570312 6.10253906 C-1.96322937 4.9815683 -1.96322937 4.9815683 -2.08312988 3.83795166 C-2 2 -2 2 0 0 Z " fill="#405975" transform="translate(125,197)"/>
<path d="M0 0 C6.79239242 -0.24067532 13.04299014 0.24975212 19.71875 1.48828125 C25.77334023 2.43250901 31.88461273 2.68253454 38 3 C38.04898438 3.95261719 38.09796875 4.90523438 38.1484375 5.88671875 C38.22320312 7.14097656 38.29796875 8.39523438 38.375 9.6875 C38.47941406 11.54955078 38.47941406 11.54955078 38.5859375 13.44921875 C38.97173708 16.75763217 39.74956374 18.95981719 41 22 C42.90442096 33.02977139 43.40855962 44.3070129 44.17529297 55.45849609 C44.83315949 64.63656765 45.83531929 73.74485211 47.03491211 82.8671875 C47.69446799 87.96356262 48.15791657 92.86053343 48 98 C40.97230406 98.38715451 34.94677538 96.96804909 28.1875 95.125 C27.15173828 94.85558594 26.11597656 94.58617187 25.04882812 94.30859375 C17.41056209 92.27370806 17.41056209 92.27370806 14 90 C13.14567566 87.09815979 13.14567566 87.09815979 12.48120117 83.39672852 C12.35861781 82.72977494 12.23603445 82.06282137 12.10973644 81.37565708 C11.72477122 79.25278188 11.36000381 77.12723987 11 75 C10.8859293 74.33850323 10.7718586 73.67700645 10.65433121 72.99546432 C9.83376751 68.22008852 9.06246292 63.43741221 8.30078125 58.65234375 C8.05856654 57.14113977 7.81622898 55.62995548 7.57377625 54.11878967 C7.07182865 50.98551678 6.57213833 47.8518942 6.07397461 44.71801758 C5.43700139 40.71283825 4.79301042 36.7088216 4.14722919 32.70505428 C3.64727002 29.59913764 3.15161403 26.49254566 2.65718651 23.38574409 C2.42143211 21.90839787 2.184213 20.43128457 1.94545937 18.95442009 C1.6132197 16.89599654 1.28695969 14.83670812 0.9621582 12.77709961 C0.775793 11.60988876 0.5894278 10.44267792 0.39741516 9.24009705 C0.0149074 6.12153896 -0.07324295 3.13803577 0 0 Z " fill="#958A52" transform="translate(73,97)"/>
<path d="M0 0 C1.65708984 0.14018555 1.65708984 0.14018555 3.34765625 0.28320312 C4.33846191 0.372229 5.32926758 0.46125488 6.35009766 0.55297852 C8.99917816 0.77060937 8.99917816 0.77060937 11.87109375 -0.37695312 C12.11859375 0.24179688 12.36609375 0.86054687 12.62109375 1.49804688 C14.07738014 3.97373374 15.24921881 4.5742969 17.87109375 5.62304688 C17.87109375 6.28304687 17.87109375 6.94304687 17.87109375 7.62304688 C26.98124916 9.95023582 35.81379884 9.77418314 45.12451172 9.45654297 C47.62969542 9.3727592 50.13475193 9.31113927 52.640625 9.25195312 C54.25394481 9.20508524 55.86722849 9.15695245 57.48046875 9.10742188 C58.21916199 9.08959656 58.95785522 9.07177124 59.71893311 9.05340576 C65.11851523 8.85170655 70.88130924 8.61283139 74.87109375 4.62304688 C77.53599927 4.44717503 80.08361018 4.38899795 82.74609375 4.43554688 C83.50680176 4.44344238 84.26750977 4.45133789 85.05126953 4.45947266 C102.51725579 4.72048824 102.51725579 4.72048824 106.87109375 7.62304688 C108.5541134 6.99881367 110.21957632 6.32640483 111.87109375 5.62304688 C114.44407654 5.46278381 114.44407654 5.46278381 117.20874023 5.59204102 C118.25009628 5.63611588 119.29145233 5.68019073 120.36436462 5.7256012 C122.03638695 5.81598915 122.03638695 5.81598915 123.7421875 5.90820312 C124.8972731 5.96576279 126.0523587 6.02332245 127.2424469 6.08262634 C129.68286524 6.2088032 132.12297081 6.3411598 134.56274414 6.47924805 C138.2903753 6.68454351 142.01851375 6.85288258 145.74804688 7.01953125 C148.12121632 7.14682359 150.4942694 7.27630831 152.8671875 7.40820312 C153.97984482 7.45429214 155.09250214 7.50038116 156.23887634 7.54786682 C162.81266573 7.96413002 166.33235897 8.73264018 170.87109375 13.62304688 C166.16169013 38.53007708 161.35751165 63.41781552 156.40026855 88.2767334 C155.88731445 90.85002234 155.37532606 93.423504 154.86437988 95.99719238 C153.4520508 103.10575287 152.02028689 110.20980527 150.55395508 117.30743408 C150.09758568 119.52332206 149.6462736 121.74025745 149.19995117 123.95819092 C148.5710509 127.06779869 147.91981843 130.17185016 147.26171875 133.27539062 C147.07889343 134.19872696 146.89606812 135.12206329 146.70770264 136.07337952 C146.52475647 136.91211105 146.3418103 137.75084259 146.15332031 138.61499023 C145.92542816 139.71030312 145.92542816 139.71030312 145.69293213 140.82774353 C144.87109375 142.62304687 144.87109375 142.62304687 143.00970459 143.88502502 C136.36498468 146.17807825 127.36119262 142.31100533 120.87109375 140.56054688 C119.81019531 140.27888672 118.74929687 139.99722656 117.65625 139.70703125 C115.05991974 139.01701555 112.46496064 138.32225484 109.87109375 137.62304688 C109.87109375 137.29304687 109.87109375 136.96304688 109.87109375 136.62304688 C115.83395079 136.30159906 120.78690965 137.47273585 126.49609375 139.12304688 C133.55666491 141.26980479 133.55666491 141.26980479 140.87109375 141.62304688 C142.52068366 136.15141605 143.76273029 130.66528437 144.87109375 125.06054688 C145.04552002 124.18736816 145.21994629 123.31418945 145.3996582 122.41455078 C146.65311749 116.02360784 147.66301298 109.64051096 148.4765625 103.17773438 C148.87109375 100.62304688 148.87109375 100.62304688 149.87109375 98.62304688 C150.00576508 96.83341457 150.10293725 95.04092575 150.18359375 93.24804688 C150.65166216 86.41575801 151.94637025 79.89663665 153.35864258 73.20385742 C154.44241247 67.99088013 155.28133057 62.85247592 155.87109375 57.56054688 C156.64385001 50.64789087 157.97294317 43.9526189 159.55078125 37.17944336 C160.60134516 32.53597078 161.06082588 28.38532332 160.87109375 23.62304688 C150.02275005 22.56081322 139.17426455 21.55418461 128.30859375 20.68554688 C121.00519153 20.09998517 113.7282472 19.40110778 106.44921875 18.56567383 C79.66636476 15.50662866 52.68410195 13.76170911 25.74145508 12.96630859 C17.37988216 12.7009465 9.10156349 12.01261936 0.78515625 11.12304688 C-5.17504322 10.48742679 -11.15149173 10.06107218 -17.12890625 9.62304688 C-17.05897461 10.19595459 -16.98904297 10.7688623 -16.91699219 11.35913086 C-13.2059166 42.0292017 -10.15478279 72.79431179 -8.12890625 103.62304688 C-10.10890625 104.61304688 -10.10890625 104.61304688 -12.12890625 105.62304688 C-13.11890625 104.96304688 -14.10890625 104.30304688 -15.12890625 103.62304688 C-13.80890625 103.62304688 -12.48890625 103.62304688 -11.12890625 103.62304688 C-11.34039307 101.92668091 -11.34039307 101.92668091 -11.55615234 100.19604492 C-14.05589312 80.06567679 -16.50248003 59.98753136 -17.76953125 39.73632812 C-18.15330202 32.26931659 -18.15330202 32.26931659 -20.18359375 25.14257812 C-21.44448902 21.7819275 -21.32073657 18.88596896 -21.25390625 15.31054688 C-21.23585937 14.05628906 -21.2178125 12.80203125 -21.19921875 11.50976562 C-21.17601562 10.55714844 -21.1528125 9.60453125 -21.12890625 8.62304688 C-21.95648438 8.65785156 -22.7840625 8.69265625 -23.63671875 8.72851562 C-35.32247847 8.99352745 -46.59709862 7.4056807 -58.12890625 5.62304688 C-57.79890625 4.63304688 -57.46890625 3.64304687 -57.12890625 2.62304688 C-52.9022184 1.94001921 -48.67225751 1.27974953 -44.44140625 0.62304688 C-43.26255859 0.43226562 -42.08371094 0.24148437 -40.86914062 0.04492188 C-27.04332644 -2.07629893 -13.86807313 -1.24457067 0 0 Z " fill="#BDA74A" transform="translate(132.12890625,91.376953125)"/>
<path d="M0 0 C0.66 0 1.32 0 2 0 C2 0.99 2 1.98 2 3 C3.30195312 3.13535156 4.60390625 3.27070313 5.9453125 3.41015625 C10.61938531 3.93020854 15.24072083 4.64289338 19.875 5.4375 C20.65149902 5.56874268 21.42799805 5.69998535 22.22802734 5.83520508 C28.16060903 6.84286881 34.08517216 7.89259831 40 9 C40 9.99 40 10.98 40 12 C40.66 12 41.32 12 42 12 C42.02313993 21.22270478 42.04092354 30.44539961 42.05181217 39.66812706 C42.05703738 43.95031126 42.06412848 48.23247564 42.07543945 52.51464844 C42.08628117 56.64487529 42.09227957 60.77508305 42.09487724 64.90532303 C42.09672917 66.4834282 42.10034535 68.06153229 42.10573006 69.63962936 C42.11295752 71.84489984 42.11399022 74.05009074 42.11352539 76.25537109 C42.115746 77.51223724 42.11796661 78.76910339 42.12025452 80.0640564 C42 83 42 83 41 85 C33.62110842 82.94817514 26.57534861 80.36013389 19.5 77.4375 C18.51257813 77.03853516 17.52515625 76.63957031 16.5078125 76.22851562 C15.56679687 75.84244141 14.62578125 75.45636719 13.65625 75.05859375 C12.80869141 74.71111084 11.96113281 74.36362793 11.08789062 74.00561523 C9 73 9 73 7 71 C6.58312988 69.04730225 6.58312988 69.04730225 6.34570312 66.62402344 C6.25220581 65.71416687 6.1587085 64.8043103 6.06237793 63.86688232 C5.96960571 62.87440491 5.8768335 61.88192749 5.78125 60.859375 C5.67784302 59.82677551 5.57443604 58.79417603 5.46789551 57.73028564 C5.13695074 54.40428444 4.81841516 51.07722168 4.5 47.75 C4.28594917 45.58455689 4.07111372 43.41919119 3.85546875 41.25390625 C2.49488759 27.50954581 1.23090025 13.75651367 0 0 Z " fill="#405975" transform="translate(123,199)"/>
<path d="M0 0 C5.22760481 0.51139612 10.09298413 1.75674158 15.125 3.21875 C16.72487562 3.67323177 18.32515326 4.12630014 19.92578125 4.578125 C20.75674316 4.81273437 21.58770508 5.04734375 22.44384766 5.2890625 C26.72124913 6.47872755 31.01608349 7.60005437 35.3125 8.71875 C36.18704834 8.9468335 37.06159668 9.17491699 37.96264648 9.40991211 C40.64147519 10.10772531 43.32066996 10.80411439 46 11.5 C49.56294558 12.42538154 53.12538937 13.35266 56.6875 14.28125 C57.55181641 14.50538574 58.41613281 14.72952148 59.30664062 14.96044922 C63.56778692 16.07229692 67.81178211 17.22221605 72.0390625 18.45703125 C72.84384033 18.68998901 73.64861816 18.92294678 74.4777832 19.16296387 C75.97647608 19.59997161 77.47269417 20.04561116 78.96557617 20.5020752 C82.57199008 21.55124886 85.61896891 22.08500676 89.38671875 21.94726562 C90.57910156 21.96466797 91.77148438 21.98207031 93 22 C93.99 23.485 93.99 23.485 95 25 C98.55672179 26.2188121 98.55672179 26.2188121 102 27 C102.18015516 52.26210161 100.99110139 80.54469959 86 102 C84.515 102.495 84.515 102.495 83 103 C83.15992432 102.44473633 83.31984863 101.88947266 83.48461914 101.31738281 C84.04371649 98.80343112 84.17631857 96.49580394 84.24609375 93.921875 C84.2934668 92.44074219 84.2934668 92.44074219 84.34179688 90.9296875 C84.37337891 89.88039063 84.40496094 88.83109375 84.4375 87.75 C84.68193107 80.77335737 85.01556902 73.91289312 86 67 C87.11225041 59.15657486 87.41214399 51.33594039 87.65820312 43.421875 C87.83771606 37.88261887 88.20963529 32.48682942 89 27 C84.05 26.01 84.05 26.01 79 25 C79 24.34 79 23.68 79 23 C78.33581055 22.89453857 77.67162109 22.78907715 76.98730469 22.68041992 C44.48622149 17.48622149 44.48622149 17.48622149 42 15 C42 38.43 42 61.86 42 86 C41.01 86.33 40.02 86.66 39 87 C39.33 62.91 39.66 38.82 40 14 C39.34 14 38.68 14 38 14 C38 13.01 38 12.02 38 11 C36.824375 11.04125 35.64875 11.0825 34.4375 11.125 C30.33872805 11.26881656 26.92187886 10.1374264 23 9 C20.15777949 8.40639515 17.30067813 7.91851393 14.4375 7.4375 C13.70853516 7.31181641 12.97957031 7.18613281 12.22851562 7.05664062 C8.15483181 6.35630434 4.07772239 5.67639945 0 5 C-0.5625 3.0625 -0.5625 3.0625 -1 1 C-0.67 0.67 -0.34 0.34 0 0 Z " fill="#5B7EA5" transform="translate(125,197)"/>
<path d="M0 0 C0.99 0.99 1.98 1.98 3 3 C2.85120647 5.51577701 2.54064905 7.65155508 2.01464844 10.09375 C1.80266264 11.17699444 1.80266264 11.17699444 1.58639431 12.28212261 C1.11048003 14.69168456 0.61002325 17.09546556 0.109375 19.5 C-0.23093234 21.19622457 -0.5697468 22.89274926 -0.90715027 24.58955383 C-1.81407372 29.1276827 -2.74228515 33.66121235 -3.67487717 38.19412613 C-4.62864271 42.84729872 -5.56326882 47.50431201 -6.50024414 52.16088867 C-8.48446462 62.00169613 -10.49674711 71.8366097 -12.52045441 81.66936493 C-12.96718341 83.84050837 -13.413183 86.01179986 -13.85882568 88.1831665 C-19.44692658 115.39983054 -19.44692658 115.39983054 -22 127 C-22.1637915 127.77625732 -22.32758301 128.55251465 -22.49633789 129.35229492 C-23 131 -23 131 -24.5625 132.3125 C-31.58890627 134.2943069 -40.19384146 130.77320359 -47 128.9375 C-48.06089844 128.65583984 -49.12179688 128.37417969 -50.21484375 128.08398438 C-52.81117401 127.39396867 -55.40613311 126.69920797 -58 126 C-58 125.67 -58 125.34 -58 125 C-52.03714296 124.67855218 -47.0841841 125.84968897 -41.375 127.5 C-34.31442884 129.64675791 -34.31442884 129.64675791 -27 130 C-25.35041009 124.52836918 -24.10836346 119.0422375 -23 113.4375 C-22.82557373 112.56432129 -22.65114746 111.69114258 -22.47143555 110.79150391 C-21.21797626 104.40056097 -20.20808077 98.01746408 -19.39453125 91.5546875 C-19 89 -19 89 -18 87 C-17.86532867 85.2103677 -17.7681565 83.41787888 -17.6875 81.625 C-17.21943159 74.79271113 -15.9247235 68.27358977 -14.51245117 61.58081055 C-13.42868128 56.36783325 -12.58976318 51.22942904 -12 45.9375 C-11.22724374 39.024844 -9.89815058 32.32957202 -8.3203125 25.55639648 C-7.26974859 20.91292391 -6.81026787 16.76227644 -7 12 C-18.0357586 10.9194153 -29.07267295 9.89678578 -40.125 9 C-47.71539665 8.37840972 -55.29871763 7.71365679 -62.875 6.9375 C-64.07020264 6.81858398 -64.07020264 6.81858398 -65.28955078 6.69726562 C-70.75993739 6.1200313 -70.75993739 6.1200313 -73 5 C-72.67 4.34 -72.34 3.68 -72 3 C-71.35603271 3.07516846 -70.71206543 3.15033691 -70.04858398 3.2277832 C-52.62660749 5.23573467 -35.20589103 6.75296533 -17.71459961 7.99731445 C-16.89254028 8.05710983 -16.07048096 8.11690521 -15.22351074 8.17851257 C-13.67281241 8.29109048 -12.12187268 8.40040666 -10.57067871 8.50593567 C-7.51959809 8.72847143 -4.91685209 9.02771597 -2 10 C-1.34 6.7 -0.68 3.4 0 0 Z " fill="#B5A865" transform="translate(300,103)"/>
<path d="M0 0 C2.50755525 0.16794849 5.01537178 0.33204257 7.5234375 0.4921875 C12.08090687 0.8045771 16.6378968 1.11758209 21.19042969 1.49560547 C22.09782898 1.56858856 23.00522827 1.64157166 23.94012451 1.71676636 C26.25 2.125 26.25 2.125 29.25 4.125 C28.59 7.755 27.93 11.385 27.25 15.125 C19.85214141 14.59734958 12.45471602 14.06407568 5.05761719 13.52587891 C2.54795961 13.34404298 0.03819556 13.16366967 -2.47167969 12.98486328 C-15.94604596 12.02394234 -29.37411429 11.05401457 -42.75 9.125 C-42.75 8.465 -42.75 7.805 -42.75 7.125 C-29.42214219 -3.16866739 -16.05602969 -1.32638604 0 0 Z " fill="#FEF99A" transform="translate(270.75,97.875)"/>
<path d="M0 0 C1.13373047 0.09539062 2.26746094 0.19078125 3.43554688 0.2890625 C6.18664695 0.52122284 8.93722931 0.75824622 11.6875 1 C11.3575 1.66 11.0275 2.32 10.6875 3 C7.73900231 3.64470662 4.85351278 4.17280131 1.875 4.625 C1.05451172 4.7590625 0.23402344 4.893125 -0.61132812 5.03125 C-4.26647549 5.6122791 -7.59167852 6 -11.3125 6 C-12.53715271 9.67395813 -12.26771278 12.85997604 -12.02734375 16.66015625 C-11.98028793 17.44761734 -11.93323212 18.23507843 -11.88475037 19.04640198 C-11.2584775 28.7855182 -10.22795249 38.48663552 -9.2137146 48.19146729 C-7.27443315 66.77634978 -5.4664564 85.34752435 -4.3125 104 C-6.2925 104.99 -6.2925 104.99 -8.3125 106 C-9.3025 105.34 -10.2925 104.68 -11.3125 104 C-9.9925 104 -8.6725 104 -7.3125 104 C-7.52398682 102.30363403 -7.52398682 102.30363403 -7.73974609 100.57299805 C-10.23948687 80.44262991 -12.68607378 60.36448449 -13.953125 40.11328125 C-14.33689577 32.64626972 -14.33689577 32.64626972 -16.3671875 25.51953125 C-17.62808277 22.15888063 -17.50433032 19.26292208 -17.4375 15.6875 C-17.41945312 14.43324219 -17.40140625 13.17898437 -17.3828125 11.88671875 C-17.35960937 10.93410156 -17.33640625 9.98148438 -17.3125 9 C-18.14007813 9.03480469 -18.96765625 9.06960937 -19.8203125 9.10546875 C-31.50607222 9.37048058 -42.78069237 7.78263382 -54.3125 6 C-53.9825 5.01 -53.6525 4.02 -53.3125 3 C-49.08581215 2.31697233 -44.85585126 1.65670266 -40.625 1 C-39.44615234 0.80921875 -38.26730469 0.6184375 -37.05273438 0.421875 C-24.53252458 -1.4990339 -12.57860234 -1.10745577 0 0 Z " fill="#BAAA64" transform="translate(128.3125,91)"/>
<path d="M0 0 C4.39036838 4.0648114 6.39334692 8.73919039 6.84375 14.70703125 C7.13338694 23.30398214 7.1310337 32.19395698 5.84375 40.70703125 C4.85375 41.20203125 4.85375 41.20203125 3.84375 41.70703125 C3.81684156 39.08196323 3.79695596 36.45716952 3.78125 33.83203125 C3.77287109 33.08566406 3.76449219 32.33929688 3.75585938 31.5703125 C3.73046875 25.93359375 3.73046875 25.93359375 4.84375 23.70703125 C4.74651549 21.71681604 4.74651549 21.71681604 4.40625 19.58203125 C4.220625 18.30328125 4.035 17.02453125 3.84375 15.70703125 C-0.57072227 14.54094424 -4.89217572 13.58245258 -9.40625 12.89453125 C-15.73383343 11.79139606 -21.35260578 9.39757656 -27.15625 6.70703125 C-27.91035156 6.36671875 -28.66445312 6.02640625 -29.44140625 5.67578125 C-31.15625 4.70703125 -31.15625 4.70703125 -32.15625 2.70703125 C-33.14625 2.37703125 -34.13625 2.04703125 -35.15625 1.70703125 C-35.15625 1.04703125 -35.15625 0.38703125 -35.15625 -0.29296875 C-42.43800409 -1.6477137 -51.07243289 -2.65424112 -58.15625 -0.29296875 C-57.82625 -1.28296875 -57.49625 -2.27296875 -57.15625 -3.29296875 C-54.43849743 -4.1221136 -51.93053127 -4.77485171 -49.15625 -5.29296875 C-48.31707031 -5.47214844 -47.47789062 -5.65132812 -46.61328125 -5.8359375 C-32.11334986 -7.75287758 -12.22828194 -9.1047534 0 0 Z " fill="#FEFDB4" transform="translate(207.15625,27.29296875)"/>
<path d="M0 0 C1.46100631 0.0020182 2.92203362 0.01711147 4.3828125 0.04296875 C5.14279541 0.05231445 5.90277832 0.06166016 6.68579102 0.07128906 C8.96046652 0.1086613 11.23375174 0.16624689 13.5078125 0.23046875 C15.35052734 0.27494141 15.35052734 0.27494141 17.23046875 0.3203125 C18.29136719 0.37316406 19.35226563 0.42601563 20.4453125 0.48046875 C21.85103516 0.55007812 21.85103516 0.55007812 23.28515625 0.62109375 C25.5078125 1.23046875 25.5078125 1.23046875 26.82421875 3.27734375 C27.04980469 3.921875 27.27539062 4.56640625 27.5078125 5.23046875 C26.79753906 5.56820312 26.08726562 5.9059375 25.35546875 6.25390625 C24.43636719 6.69992188 23.51726562 7.1459375 22.5703125 7.60546875 C21.65378906 8.04632813 20.73726562 8.4871875 19.79296875 8.94140625 C17.37877448 10.02246037 17.37877448 10.02246037 16.5078125 12.23046875 C14.1978125 12.23046875 11.8878125 12.23046875 9.5078125 12.23046875 C9.5078125 11.57046875 9.5078125 10.91046875 9.5078125 10.23046875 C8.22583984 10.24787109 8.22583984 10.24787109 6.91796875 10.265625 C5.81324219 10.27464844 4.70851562 10.28367187 3.5703125 10.29296875 C2.46816406 10.30457031 1.36601562 10.31617187 0.23046875 10.328125 C-2.4921875 10.23046875 -2.4921875 10.23046875 -3.4921875 9.23046875 C-10.00042021 8.35097784 -16.49739644 7.96143519 -23.0546875 7.66796875 C-23.96798828 7.62478516 -24.88128906 7.58160156 -25.82226562 7.53710938 C-28.04546741 7.43235118 -30.26875457 7.33017858 -32.4921875 7.23046875 C-32.1621875 6.57046875 -31.8321875 5.91046875 -31.4921875 5.23046875 C-30.20183594 5.18148437 -28.91148437 5.1325 -27.58203125 5.08203125 C-25.86456403 5.00695072 -24.14711709 4.93140521 -22.4296875 4.85546875 C-21.58212891 4.82453125 -20.73457031 4.79359375 -19.86132812 4.76171875 C-12.49666087 4.42049865 -6.42394099 0.42395136 0 0 Z " fill="#FBD939" transform="translate(210.4921875,95.76953125)"/>
<path d="M0 0 C5.09865258 0.50533024 9.90812913 1.70102254 14.8125 3.125 C16.37858029 3.57015875 17.9450103 4.01408832 19.51171875 4.45703125 C20.37071777 4.70018066 21.2297168 4.94333008 22.11474609 5.19384766 C27.77351282 6.7749314 33.45032865 8.28969642 39.125 9.8125 C40.29393799 10.12654785 41.46287598 10.4405957 42.66723633 10.76416016 C45.44465502 11.510073 48.22223753 12.25536858 51 13 C51 13.99 51 14.98 51 16 C52.98 16 54.96 16 57 16 C57 16.66 57 17.32 57 18 C58.98 18.33 60.96 18.66 63 19 C58.62701088 20.3583275 55.11979793 19.2812702 50.8125 18.125 C50.07580078 17.93808594 49.33910156 17.75117188 48.58007812 17.55859375 C43.14982531 16.14982531 43.14982531 16.14982531 42 15 C42 38.43 42 61.86 42 86 C41.01 86.33 40.02 86.66 39 87 C39.33 62.91 39.66 38.82 40 14 C39.34 14 38.68 14 38 14 C38 13.01 38 12.02 38 11 C36.824375 11.04125 35.64875 11.0825 34.4375 11.125 C30.33872805 11.26881656 26.92187886 10.1374264 23 9 C20.15777949 8.40639515 17.30067813 7.91851393 14.4375 7.4375 C13.70853516 7.31181641 12.97957031 7.18613281 12.22851562 7.05664062 C8.15483181 6.35630434 4.07772239 5.67639945 0 5 C-0.5625 3.0625 -0.5625 3.0625 -1 1 C-0.67 0.67 -0.34 0.34 0 0 Z " fill="#557295" transform="translate(125,197)"/>
<path d="M0 0 C1.13373047 0.09539062 2.26746094 0.19078125 3.43554688 0.2890625 C6.18664695 0.52122284 8.93722931 0.75824622 11.6875 1 C11.3575 1.66 11.0275 2.32 10.6875 3 C7.73900231 3.64470662 4.85351278 4.17280131 1.875 4.625 C1.05451172 4.7590625 0.23402344 4.893125 -0.61132812 5.03125 C-4.26647549 5.6122791 -7.59167852 6 -11.3125 6 C-11.6425 6.99 -11.9725 7.98 -12.3125 9 C-13.6325 9 -14.9525 9 -16.3125 9 C-16.3125 8.34 -16.3125 7.68 -16.3125 7 C-17.57707031 7.01740234 -17.57707031 7.01740234 -18.8671875 7.03515625 C-19.96289062 7.04417969 -21.05859375 7.05320312 -22.1875 7.0625 C-23.82332031 7.07990234 -23.82332031 7.07990234 -25.4921875 7.09765625 C-28.3125 7 -28.3125 7 -30.3125 6 C-32.12421098 5.84693099 -33.9408794 5.75053339 -35.7578125 5.68359375 C-36.83417969 5.64169922 -37.91054687 5.59980469 -39.01953125 5.55664062 C-40.71142578 5.49766602 -40.71142578 5.49766602 -42.4375 5.4375 C-43.57316406 5.39431641 -44.70882812 5.35113281 -45.87890625 5.30664062 C-48.68997768 5.2003396 -51.50113945 5.09830595 -54.3125 5 C-53.9825 4.34 -53.6525 3.68 -53.3125 3 C-49.13063191 1.95838447 -44.82656111 1.4828651 -40.5625 0.875 C-39.38816406 0.69324219 -38.21382812 0.51148437 -37.00390625 0.32421875 C-24.51839054 -1.50259488 -12.53223259 -1.10337324 0 0 Z " fill="#FDF798" transform="translate(128.3125,91)"/>
<path d="M0 0 C0 0.66 0 1.32 0 2 C1.32 2.33 2.64 2.66 4 3 C4 3.66 4 4.32 4 5 C4.52207031 5.17015625 5.04414063 5.3403125 5.58203125 5.515625 C6.31808594 5.75796875 7.05414063 6.0003125 7.8125 6.25 C8.63878906 6.52199219 9.46507812 6.79398438 10.31640625 7.07421875 C12.08757461 7.68523316 13.84646784 8.3332249 15.58984375 9.01953125 C21.79996386 11.45433605 27.61247408 12.70013244 34.25 13.41015625 C37.27320026 14.05859835 37.98932592 14.78493203 40 17 C35.95779519 16.8896357 31.91648085 16.75911994 27.875 16.625 C26.16183594 16.57859375 26.16183594 16.57859375 24.4140625 16.53125 C23.30546875 16.49257813 22.196875 16.45390625 21.0546875 16.4140625 C20.03874512 16.3826416 19.02280273 16.3512207 17.97607422 16.31884766 C14.75811858 15.97408555 12.0262641 15.12449188 9 14 C9 13.34 9 12.68 9 12 C8.236875 12.061875 7.47375 12.12375 6.6875 12.1875 C3.39626499 11.95787895 3.24311683 11.24311683 1 9 C-1.26027345 7.7951851 -1.26027345 7.7951851 -3.6875 6.8125 C-4.49574219 6.46832031 -5.30398437 6.12414063 -6.13671875 5.76953125 C-6.75160156 5.51558594 -7.36648437 5.26164062 -8 5 C-8 4.34 -8 3.68 -8 3 C-13.99107278 2.22337945 -19.98673249 1.57914667 -26 1 C-25.67 0.34 -25.34 -0.32 -25 -1 C-17.04847905 -3.25340937 -7.71584964 -2.87101382 0 0 Z " fill="#CBBB75" transform="translate(172,27)"/>
<path d="M0 0 C1.65 0 3.3 0 5 0 C4.53745942 12.69594156 3.62303598 25.34234135 2.5625 38 C2.49640533 38.79105133 2.43031067 39.58210266 2.36221313 40.39712524 C1.57009045 49.82833218 0.68403662 59.23898522 -0.37304688 68.64453125 C-0.88292577 73.59764053 -1.10294491 78.52612454 -1.23828125 83.50390625 C-1.25622742 84.16265244 -1.27417358 84.82139862 -1.29266357 85.50010681 C-1.37882655 88.78593329 -1.44421546 92.070417 -1.48291016 95.35717773 C-1.50788574 96.54899658 -1.53286133 97.74081543 -1.55859375 98.96875 C-1.57204834 100.03544922 -1.58550293 101.10214844 -1.59936523 102.20117188 C-2 105 -2 105 -5 109 C-5 100.75 -5 92.5 -5 84 C-4.34 84 -3.68 84 -3 84 C-3.01160156 82.85402344 -3.02320313 81.70804687 -3.03515625 80.52734375 C-3.04454242 78.99739748 -3.05364173 77.46744942 -3.0625 75.9375 C-3.07087891 75.18533203 -3.07925781 74.43316406 -3.08789062 73.65820312 C-3.10256669 70.26803218 -3.01241651 67.08469475 -2.51953125 63.72265625 C-1.76654988 58.32723332 -1.75522609 52.94140031 -1.625 47.5 C-1.17537908 31.91453245 0.32546904 16.49453103 2 1 C1.34 0.67 0.68 0.34 0 0 Z " fill="#B69D34" transform="translate(220,108)"/>
<path d="M0 0 C0.68908447 0.00483398 1.37816895 0.00966797 2.08813477 0.01464844 C4.92100131 0.169611 7.16634397 0.40893927 9.30712891 2.3671875 C10.51680088 3.87939052 11.66758388 5.43819613 12.8125 7 C13.8025 7.33 14.7925 7.66 15.8125 8 C15.8125 8.66 15.8125 9.32 15.8125 10 C17.1325 10 18.4525 10 19.8125 10 C20.3075 10.99 20.3075 10.99 20.8125 12 C23.15716601 12.59812909 25.435157 13.08070394 27.8125 13.5 C29.17852356 13.75577372 30.54440964 14.01228278 31.91015625 14.26953125 C33.19792969 14.51058594 34.48570312 14.75164063 35.8125 15 C38.81969674 15.63907832 41.81505213 16.31637154 44.8125 17 C44.8125 17.66 44.8125 18.32 44.8125 19 C45.8025 19.33 46.7925 19.66 47.8125 20 C48.10065144 37.48118719 48.10065144 37.48118719 46.8125 46 C45.8225 46.495 45.8225 46.495 44.8125 47 C44.78559156 44.37493198 44.76570596 41.75013827 44.75 39.125 C44.74162109 38.37863281 44.73324219 37.63226563 44.72460938 36.86328125 C44.69921875 31.2265625 44.69921875 31.2265625 45.8125 29 C45.71526549 27.00978479 45.71526549 27.00978479 45.375 24.875 C45.189375 23.59625 45.00375 22.3175 44.8125 21 C40.39802773 19.83391299 36.07657428 18.87542133 31.5625 18.1875 C25.23491657 17.08436481 19.61614422 14.69054531 13.8125 12 C13.05839844 11.6596875 12.30429688 11.319375 11.52734375 10.96875 C9.8125 10 9.8125 10 8.8125 8 C7.8225 7.67 6.8325 7.34 5.8125 7 C5.8125 6.34 5.8125 5.68 5.8125 5 C-1.46925409 3.64525505 -10.10368289 2.63872763 -17.1875 5 C-16.8575 4.01 -16.5275 3.02 -16.1875 2 C-10.86615034 -0.17197945 -5.69281074 -0.18370165 0 0 Z " fill="#E9DA8F" transform="translate(166.1875,22)"/>
<path d="M0 0 C0.66 0 1.32 0 2 0 C2.24877131 6.92413491 1.88374701 13.63519847 1.0625 20.5 C-0.07435138 30.11391669 -0.40445601 39.71926764 -0.65795898 49.39257812 C-0.81365078 55.01808335 -1.12494312 60.43329202 -2 66 C-2.24510803 68.97626279 -2.40662266 71.95538752 -2.5625 74.9375 C-2.62727539 76.10635742 -2.62727539 76.10635742 -2.69335938 77.29882812 C-2.79828077 79.19907117 -2.8995245 81.09951669 -3 83 C-3.66 83 -4.32 83 -5 83 C-5 91.25 -5 99.5 -5 108 C-5.66 108 -6.32 108 -7 108 C-7.495 108.99 -7.495 108.99 -8 110 C-8.21953747 102.40045554 -7.60101487 94.9789996 -6.83169556 87.4225769 C-4.80264761 67.32233 -3.87159303 47.17808272 -3 27 C-2.34 27 -1.68 27 -1 27 C-1.01160156 26.30777344 -1.02320313 25.61554688 -1.03515625 24.90234375 C-1.11216762 16.55211039 -0.63658548 8.32108166 0 0 Z " fill="#A78C20" transform="translate(220,109)"/>
<path d="M0 0 C0.99 0.99 1.98 1.98 3 3 C2.7737681 5.88185219 2.38094511 8.42651988 1.7800293 11.23510742 C1.61465668 12.07435257 1.44928406 12.91359772 1.27890015 13.77827454 C0.7269994 16.55755754 0.15074666 19.33119899 -0.42578125 22.10546875 C-0.81271785 24.02902024 -1.19813082 25.9528788 -1.58207703 27.87702942 C-2.59767659 32.94530379 -3.63397475 38.00913179 -4.67456055 43.07232666 C-5.73236178 48.23776075 -6.77064272 53.40711072 -7.81054688 58.57617188 C-9.85455375 68.72138827 -11.92043692 78.86201674 -14 89 C-14.66 89 -15.32 89 -16 89 C-16.17271557 83.65195439 -15.56139754 78.88121467 -14.4609375 73.65625 C-14.29941193 72.86126099 -14.13788635 72.06627197 -13.97146606 71.24719238 C-13.44535125 68.66351845 -12.91011634 66.08182301 -12.375 63.5 C-11.82585198 60.81259609 -11.27917019 58.12469783 -10.73260498 55.43676758 C-10.3632992 53.6213437 -9.99321975 51.80607703 -9.62237549 49.9909668 C-7.8564467 41.33848094 -6.16726436 32.67195854 -4.5 24 C-4.24271044 22.66470686 -3.98538731 21.32942019 -3.72802734 19.99414062 C-3.15086861 16.99631262 -2.57476027 13.9982886 -2 11 C-2.99 10.67 -3.98 10.34 -5 10 C-4.01 10 -3.02 10 -2 10 C-1.34 6.7 -0.68 3.4 0 0 Z " fill="#D0C27A" transform="translate(300,103)"/>
<path d="M0 0 C0.6290625 0.13277344 1.258125 0.26554688 1.90625 0.40234375 C7.26258811 1.50749182 12.56437906 2.39604212 18 3 C18 3.99 18 4.98 18 6 C18.66 6 19.32 6 20 6 C20 29.43 20 52.86 20 77 C19.67 77 19.34 77 19 77 C17.93101032 67.74372985 17.70867229 58.48478828 17.49731445 49.17895508 C17.43833412 46.59898678 17.37295341 44.0192422 17.30664062 41.43945312 C17.01590225 29.62467265 16.95022834 17.81800426 17 6 C15.95573853 5.80035645 15.95573853 5.80035645 14.89038086 5.59667969 C9.83764042 4.62505686 4.92211753 3.49803577 0 2 C0 1.34 0 0.68 0 0 Z " fill="#4B698A" transform="translate(145,205)"/>
<path d="M0 0 C0.66 0 1.32 0 2 0 C1.33577179 7.87331844 -0.19347929 15.52745986 -1.84643555 23.2409668 C-2.15946265 24.71624436 -2.46469609 26.19319528 -2.76245117 27.67163086 C-3.19621796 29.8252865 -3.65201349 31.97318223 -4.11328125 34.12109375 C-4.37923096 35.3939624 -4.64518066 36.66683105 -4.91918945 37.97827148 C-6 41 -6 41 -7.89916992 42.44140625 C-14.81959657 44.2814918 -23.32905015 40.73673616 -30 38.9375 C-31.06089844 38.65583984 -32.12179688 38.37417969 -33.21484375 38.08398438 C-35.81117401 37.39396867 -38.40613311 36.69920797 -41 36 C-41 35.67 -41 35.34 -41 35 C-35.03714296 34.67855218 -30.0841841 35.84968897 -24.375 37.5 C-17.31442884 39.64675791 -17.31442884 39.64675791 -10 40 C-8.24856618 34.24867004 -7.02166995 28.46147988 -5.875 22.5625 C-5.69324219 21.64017578 -5.51148438 20.71785156 -5.32421875 19.76757812 C-4.88015965 17.5122253 -4.43881982 15.256377 -4 13 C-3.34 13 -2.68 13 -2 13 C-1.93941406 12.31292969 -1.87882812 11.62585938 -1.81640625 10.91796875 C-1.73261719 10.01691406 -1.64882813 9.11585938 -1.5625 8.1875 C-1.48128906 7.29417969 -1.40007812 6.40085938 -1.31640625 5.48046875 C-1 3 -1 3 0 0 Z " fill="#B2A66B" transform="translate(283,193)"/>
<path d="M0 0 C2.1875 2.4375 2.1875 2.4375 4 5 C4.66 5.66 5.32 6.32 6 7 C-5.36783648 7.16938829 -16.65384417 6.63922005 -28 6 C-27.67 5.01 -27.34 4.02 -27 3 C-23.4403415 2.29720597 -19.87695974 1.61548575 -16.3125 0.9375 C-15.30509766 0.73833984 -14.29769531 0.53917969 -13.25976562 0.33398438 C-11.79506836 0.05844727 -11.79506836 0.05844727 -10.30078125 -0.22265625 C-9.40528564 -0.39547119 -8.50979004 -0.56828613 -7.5871582 -0.74633789 C-4.76716749 -1.02282844 -2.70813515 -0.82336715 0 0 Z " fill="#F2CE37" transform="translate(144,94)"/>
<path d="M0 0 C0.66 0 1.32 0 2 0 C1.28200471 32.08213081 1.28200471 32.08213081 -0.53125 43.98828125 C-1.42180079 50.55087529 -1.42299881 57.23100195 -1.5703125 63.84375 C-1.59867188 64.82730469 -1.62703125 65.81085938 -1.65625 66.82421875 C-1.67494141 67.70166748 -1.69363281 68.57911621 -1.71289062 69.4831543 C-2.03043187 72.26677054 -2.85542674 74.4541241 -4 77 C-4.33 77 -4.66 77 -5 77 C-4.85795321 73.74982337 -4.71062491 70.49990484 -4.5625 67.25 C-4.50352539 65.89841797 -4.50352539 65.89841797 -4.44335938 64.51953125 C-4.22208062 59.71948432 -3.92248976 54.94232164 -3.4921875 50.15625 C-2.91643772 43.52575489 -2.74145362 36.90103321 -2.5625 30.25 C-2.25065739 20.0528141 -1.61180834 10.07771425 0 0 Z " fill="#4D6C8E" transform="translate(212,224)"/>
<path d="M0 0 C5.09865258 0.50533024 9.90812913 1.70102254 14.8125 3.125 C16.37858029 3.57015875 17.9450103 4.01408832 19.51171875 4.45703125 C20.37071777 4.70018066 21.2297168 4.94333008 22.11474609 5.19384766 C27.77351282 6.7749314 33.45032865 8.28969642 39.125 9.8125 C40.29393799 10.12654785 41.46287598 10.4405957 42.66723633 10.76416016 C45.44465502 11.510073 48.22223753 12.25536858 51 13 C47.83662624 13.86671772 45.5155756 13.99470854 42.25 13.5625 C41.45078125 13.46066406 40.6515625 13.35882813 39.828125 13.25390625 C39.22484375 13.17011719 38.6215625 13.08632812 38 13 C38 12.34 38 11.68 38 11 C36.824375 11.04125 35.64875 11.0825 34.4375 11.125 C30.33872805 11.26881656 26.92187886 10.1374264 23 9 C20.15777949 8.40639515 17.30067813 7.91851393 14.4375 7.4375 C13.70853516 7.31181641 12.97957031 7.18613281 12.22851562 7.05664062 C8.15483181 6.35630434 4.07772239 5.67639945 0 5 C-0.5625 3.0625 -0.5625 3.0625 -1 1 C-0.67 0.67 -0.34 0.34 0 0 Z " fill="#8D9D93" transform="translate(125,197)"/>
<path d="M0 0 C0.33 0 0.66 0 1 0 C1.59725061 6.17387358 2.18496701 12.34855319 2.76391602 18.52416992 C2.96215048 20.62435299 3.16297541 22.72429324 3.36645508 24.82397461 C3.65869715 27.84428575 3.9415729 30.86535124 4.22265625 33.88671875 C4.31531265 34.82335861 4.40796906 35.75999847 4.50343323 36.72502136 C4.89418479 41.01739742 5.23419192 44.79759575 4 49 C2.515 49.495 2.515 49.495 1 50 C0.01 49.34 -0.98 48.68 -2 48 C-0.68 48 0.64 48 2 48 C1.87882812 47.08299316 1.75765625 46.16598633 1.6328125 45.22119141 C1.18042412 41.77390498 0.73384832 38.32596335 0.29101562 34.87744141 C0.09928016 33.39342175 -0.09467611 31.90968708 -0.29101562 30.42626953 C-1.37128925 22.25256658 -2.26085774 14.26592976 -2 6 C-1.67 6 -1.34 6 -1 6 C-0.67 4.02 -0.34 2.04 0 0 Z " fill="#C1B168" transform="translate(119,147)"/>
<path d="M0 0 C0.66 0 1.32 0 2 0 C2.37511719 0.78246094 2.75023437 1.56492187 3.13671875 2.37109375 C3.64847656 3.38300781 4.16023437 4.39492187 4.6875 5.4375 C5.18636719 6.44683594 5.68523437 7.45617187 6.19921875 8.49609375 C7.78547365 11.18504196 7.78547365 11.18504196 10.546875 11.9765625 C13.22969566 12.26160481 13.22969566 12.26160481 15.5625 9.9375 C18.07534108 7.03070254 18.07534108 7.03070254 20.125 3.6875 C20.74375 2.800625 21.3625 1.91375 22 1 C22.99 1 23.98 1 25 1 C24.66480526 6.36311579 21.45865747 10.12824761 18 14 C15.79645294 15.82999336 14.40214675 16.89417191 11.625 17.625 C7.36848294 16.61154356 5.43542325 13.4781763 3 10 C0.73413587 6.14803098 0 4.51621181 0 0 Z " fill="#0F0D05" transform="translate(147,74)"/>
<path d="M0 0 C6.65050424 -0.24991456 12.56986533 0.26044666 19 2 C19 2.66 19 3.32 19 4 C19.61488281 4.02578125 20.22976562 4.0515625 20.86328125 4.078125 C27.57843731 4.54936402 27.57843731 4.54936402 29.8125 6.9375 C30.204375 7.618125 30.59625 8.29875 31 9 C32.85494723 10.05279021 32.85494723 10.05279021 35 11 C36.35467352 11.66563613 37.70884255 12.33229999 39.0625 13 C39.73410156 13.33 40.40570313 13.66 41.09765625 14 C43 15 43 15 46 17 C44.56208484 16.85831863 43.1246763 16.71148957 41.6875 16.5625 C40.88699219 16.48128906 40.08648437 16.40007813 39.26171875 16.31640625 C37 16 37 16 34 15 C34 14.34 34 13.68 34 13 C33.236875 13.061875 32.47375 13.12375 31.6875 13.1875 C28.39626499 12.95787895 28.24311683 12.24311683 26 10 C23.73972655 8.7951851 23.73972655 8.7951851 21.3125 7.8125 C20.50425781 7.46832031 19.69601563 7.12414063 18.86328125 6.76953125 C18.24839844 6.51558594 17.63351563 6.26164062 17 6 C17 5.34 17 4.68 17 4 C11.00892722 3.22337945 5.01326751 2.57914667 -1 2 C-0.67 1.34 -0.34 0.68 0 0 Z " fill="#AEA368" transform="translate(147,26)"/>
<path d="M0 0 C5.89522944 0.59622207 11.32005608 1.77519559 17 3.4375 C28.3069125 7.00290741 28.3069125 7.00290741 40 8 C39.34 9.32 38.68 10.64 38 12 C34.7 11.67 31.4 11.34 28 11 C28 10.34 28 9.68 28 9 C26.91460937 8.80664062 25.82921875 8.61328125 24.7109375 8.4140625 C23.26558332 8.15127083 21.82027312 7.88823714 20.375 7.625 C19.66214844 7.49867188 18.94929688 7.37234375 18.21484375 7.2421875 C14.00094047 6.46899424 10.04119829 5.46604985 6 4 C6 3.34 6 2.68 6 2 C4.02 2 2.04 2 0 2 C0 1.34 0 0.68 0 0 Z " fill="#819CAC" transform="translate(176,211)"/>
<path d="M0 0 C1.9488208 0.18175781 1.9488208 0.18175781 3.93701172 0.3671875 C8.84545253 0.82274745 13.75483839 1.26735811 18.66455078 1.70898438 C20.77288833 1.90009756 22.88097356 2.09401917 24.98876953 2.29101562 C36.19759366 3.33667461 47.29793486 4.25689119 58.56393433 4.01416016 C61.68807267 3.95102468 64.00491996 4.00163999 67 5 C67 5.66 67 6.32 67 7 C51.84087145 6.65451999 36.78692758 5.85358304 21.6875 4.5 C20.9477594 4.43428802 20.2080188 4.36857605 19.44586182 4.3008728 C6.32978694 3.12615471 6.32978694 3.12615471 0 2 C0 1.34 0 0.68 0 0 Z " fill="#E8D887" transform="translate(228,105)"/>
<path d="M0 0 C0.33 0 0.66 0 1 0 C1.19195688 7.09174027 1.18664538 13.19710326 -1 20 C-1.31919591 21.8496263 -1.60653699 23.70483182 -1.875 25.5625 C-2.82228506 31.97546953 -3.88201673 38.3645362 -5 44.75 C-5.16612793 45.73943604 -5.33225586 46.72887207 -5.50341797 47.74829102 C-5.66729004 48.67182373 -5.83116211 49.59535645 -6 50.546875 C-6.144375 51.38057617 -6.28875 52.21427734 -6.4375 53.07324219 C-6.623125 53.70907227 -6.80875 54.34490234 -7 55 C-7.99 55.495 -7.99 55.495 -9 56 C-9.54657133 45.61514481 -6.91781602 35.77945905 -4.5 25.75 C-2.49115167 17.25756711 -1.28426667 8.62553575 0 0 Z " fill="#A4985B" transform="translate(282,177)"/>
<path d="M0 0 C2.37465403 4.74930806 0.77201904 12.47562029 -0.73828125 17.4140625 C-1.5625 19.3125 -1.5625 19.3125 -3 22 C-3.66 22 -4.32 22 -5 22 C-5 21.34 -5 20.68 -5 20 C-6.65 19.67 -8.3 19.34 -10 19 C-10 18.34 -10 17.68 -10 17 C-10.99 17.33 -11.98 17.66 -13 18 C-13.66 17.34 -14.32 16.68 -15 16 C-10.7345163 14.96594335 -7.62683027 15 -3 15 C-3 10.38 -3 5.76 -3 1 C-2.01 0.67 -1.02 0.34 0 0 Z " fill="#A2965B" transform="translate(212,73)"/>
<path d="M0 0 C0 0.66 0 1.32 0 2 C1.98 2 3.96 2 6 2 C6 2.66 6 3.32 6 4 C8.97 4.495 8.97 4.495 12 5 C7.62701088 6.3583275 4.11979793 5.2812702 -0.1875 4.125 C-0.92419922 3.93808594 -1.66089844 3.75117188 -2.41992188 3.55859375 C-7.85017469 2.14982531 -7.85017469 2.14982531 -9 1 C-9.33 10.9 -9.66 20.8 -10 31 C-10.33 31 -10.66 31 -11 31 C-11 20.77 -11 10.54 -11 0 C-11.66 -0.33 -12.32 -0.66 -13 -1 C-9.09644308 -2.95177846 -4.08025075 -1.14247021 0 0 Z " fill="#59789C" transform="translate(176,211)"/>
<path d="M0 0 C3.95831809 -0.02892857 7.91660917 -0.04677427 11.875 -0.0625 C13.56689453 -0.07506836 13.56689453 -0.07506836 15.29296875 -0.08789062 C16.36933594 -0.09111328 17.44570312 -0.09433594 18.5546875 -0.09765625 C19.54968262 -0.10289307 20.54467773 -0.10812988 21.56982422 -0.11352539 C24 0 24 0 26 1 C28.0374763 1.22858114 30.08040303 1.41024278 32.125 1.5625 C33.76855469 1.68818359 33.76855469 1.68818359 35.4453125 1.81640625 C36.70988281 1.90728516 36.70988281 1.90728516 38 2 C38 2.66 38 3.32 38 4 C25.08063014 4.4997464 12.7499389 2.98865198 0 1 C0 0.67 0 0.34 0 0 Z " fill="#D2C377" transform="translate(74,96)"/>
<path d="M0 0 C6.6 0 13.2 0 20 0 C18.68 0.33 17.36 0.66 16 1 C16.18415432 3.94091587 16.18415432 3.94091587 17 7 C18.95163118 8.43637698 18.95163118 8.43637698 21 9 C21 9.66 21 10.32 21 11 C20.01 11 19.02 11 18 11 C18 10.34 18 9.68 18 9 C17.4225 8.938125 16.845 8.87625 16.25 8.8125 C14 8 14 8 12.375 5.5 C9.14413247 2.09908681 6.58529199 2.28562977 2.046875 2.04296875 C1.37140625 2.02878906 0.6959375 2.01460937 0 2 C0 1.34 0 0.68 0 0 Z " fill="#FBF09A" transform="translate(164,21)"/>
<path d="M0 0 C0.66 0 1.32 0 2 0 C1.33020896 7.32150894 -0.01670597 14.37910423 -1.5625 21.5625 C-1.79646484 22.66658203 -2.03042969 23.77066406 -2.27148438 24.90820312 C-2.84381062 27.60631255 -3.42006002 30.30351875 -4 33 C-4.66 32.67 -5.32 32.34 -6 32 C-5.34941146 24.82856996 -4.01874321 17.95786552 -2.4375 10.9375 C-2.20353516 9.88111328 -1.96957031 8.82472656 -1.72851562 7.73632812 C-1.15653688 5.15658727 -0.58028727 2.57788225 0 0 Z " fill="#D0C27B" transform="translate(283,193)"/>
<path d="M0 0 C3.31248078 -0.02945031 6.62492711 -0.04694801 9.9375 -0.0625 C10.86369141 -0.07087891 11.78988281 -0.07925781 12.74414062 -0.08789062 C18.58091669 -0.10837054 24.21877523 0.16577685 30 1 C30.33 1.33 30.66 1.66 31 2 C33.01594582 2.23427778 35.038474 2.41336124 37.0625 2.5625 C38.16722656 2.64628906 39.27195313 2.73007813 40.41015625 2.81640625 C41.26480469 2.87699219 42.11945313 2.93757813 43 3 C43 3.33 43 3.66 43 4 C33.60394198 4.10731538 24.35912329 3.99263429 15 3 C15 2.34 15 1.68 15 1 C10.05 1 5.1 1 0 1 C0 0.67 0 0.34 0 0 Z " fill="#D7B52D" transform="translate(177,103)"/>
<path d="M0 0 C10.77614306 -0.19474957 21.45082723 -0.16549771 32.1875 0.875 C33.04182617 0.95347168 33.89615234 1.03194336 34.77636719 1.11279297 C40.74799467 1.74799467 40.74799467 1.74799467 43 4 C36.50614373 4.09859094 30.20581399 3.73717451 23.75 3.0625 C21.90764384 2.87798778 20.06519552 2.6943934 18.22265625 2.51171875 C17.33465332 2.42325684 16.44665039 2.33479492 15.53173828 2.24365234 C10.36101412 1.74602624 5.18161753 1.36530884 0 1 C0 0.67 0 0.34 0 0 Z " fill="#BA9C26" transform="translate(115,100)"/>
<path d="M0 0 C1.134375 0.433125 2.26875 0.86625 3.4375 1.3125 C8.88882654 3.17031208 14.46044713 4.01661119 20.14624023 4.8215332 C25.57616034 5.66356696 25.57616034 5.66356696 28.0078125 7.59375 C28.33523437 8.0578125 28.66265625 8.521875 29 9 C18.40014674 8.9677816 10.28906905 7.12734851 1 2 C0.67 1.34 0.34 0.68 0 0 Z " fill="#CEC07B" transform="translate(183,35)"/>
<path d="M0 0 C6.65050424 -0.24991456 12.56986533 0.26044666 19 2 C19 2.66 19 3.32 19 4 C21.97 4.33 24.94 4.66 28 5 C23.46780033 7.26609984 21.82227075 6.92735976 17 6 C17 5.34 17 4.68 17 4 C11.00892722 3.22337945 5.01326751 2.57914667 -1 2 C-0.67 1.34 -0.34 0.68 0 0 Z " fill="#B8A968" transform="translate(147,26)"/>
<path d="M0 0 C1.32 0 2.64 0 4 0 C4 3.63 4 7.26 4 11 C2.35 11.33 0.7 11.66 -1 12 C-1.02687279 10.18757948 -1.04633715 8.37504767 -1.0625 6.5625 C-1.07410156 5.55316406 -1.08570313 4.54382812 -1.09765625 3.50390625 C-1 1 -1 1 0 0 Z " fill="#1A170B" transform="translate(163,40)"/>
<path d="M0 0 C0 0.66 0 1.32 0 2 C-0.71027344 2.33773437 -1.42054688 2.67546875 -2.15234375 3.0234375 C-3.07144531 3.46945313 -3.99054688 3.91546875 -4.9375 4.375 C-6.31228516 5.03628906 -6.31228516 5.03628906 -7.71484375 5.7109375 C-10.12903802 6.79199162 -10.12903802 6.79199162 -11 9 C-12.98 9 -14.96 9 -17 9 C-17 8.01 -17 7.02 -17 6 C-14.69 5.34 -12.38 4.68 -10 4 C-10 3.34 -10 2.68 -10 2 C-6.49223216 0.39644899 -3.85645121 -0.22036864 0 0 Z " fill="#EFD044" transform="translate(238,99)"/>
<path d="M0 0 C0.66 0.66 1.32 1.32 2 2 C-2.74983577 6.74983577 -10.79286716 6.10741756 -17.13671875 6.13623047 C-20.75876888 6.11988291 -24.37858744 6.07100809 -28 6 C-27.67 5.34 -27.34 4.68 -27 4 C-25.70964844 3.95101562 -24.41929687 3.90203125 -23.08984375 3.8515625 C-21.37237653 3.77648197 -19.65492959 3.70093646 -17.9375 3.625 C-17.08994141 3.5940625 -16.24238281 3.563125 -15.36914062 3.53125 C-7.12209108 3.42246819 -7.12209108 3.42246819 0 0 Z " fill="#EBCF4C" transform="translate(206,97)"/>
<path d="M0 0 C2.56364399 0.62057657 5.12584926 1.24629199 7.6875 1.875 C8.40873047 2.04902344 9.12996094 2.22304687 9.87304688 2.40234375 C13.72028845 3.35097866 17.35715569 4.40490841 21 6 C21 6.33 21 6.66 21 7 C14.15182898 6.51358785 7.66957927 5.64006048 1 4 C0.67 2.68 0.34 1.36 0 0 Z " fill="#5B7B9E" transform="translate(124,198)"/>
<path d="M0 0 C0.33 0 0.66 0 1 0 C1.12170225 5.86875316 0.96690274 11.70216707 0.625 17.5625 C0.52058594 19.35880859 0.52058594 19.35880859 0.4140625 21.19140625 C0.27742187 22.11824219 0.14078125 23.04507813 0 24 C-0.66 24.33 -1.32 24.66 -2 25 C-2.02710123 22.4374282 -2.04688771 19.87514635 -2.0625 17.3125 C-2.07087891 16.59126953 -2.07925781 15.87003906 -2.08789062 15.12695312 C-2.1054561 11.28011404 -1.93393685 7.73574741 -1 4 C-0.814375 3.236875 -0.62875 2.47375 -0.4375 1.6875 C-0.293125 1.130625 -0.14875 0.57375 0 0 Z " fill="#DACB7F" transform="translate(213,44)"/>
<path d="M0 0 C1.15242187 0.05317383 1.15242187 0.05317383 2.328125 0.10742188 C9.30358863 0.51170913 9.30358863 0.51170913 12.625 2.6875 C12.625 3.3475 12.625 4.0075 12.625 4.6875 C13.615 4.6875 14.605 4.6875 15.625 4.6875 C15.295 5.3475 14.965 6.0075 14.625 6.6875 C13.635 6.3575 12.645 6.0275 11.625 5.6875 C11.625 5.0275 11.625 4.3675 11.625 3.6875 C4.34324591 2.33275505 -4.29118289 1.32622763 -11.375 3.6875 C-11.045 2.6975 -10.715 1.7075 -10.375 0.6875 C-7.10314032 -0.94842984 -3.56730713 -0.21629022 0 0 Z " fill="#DFCF81" transform="translate(160.375,23.3125)"/>
<path d="M0 0 C2.75872566 0.50432953 5.30900838 1.18762517 8 2 C8 2.66 8 3.32 8 4 C3.40898035 4.2354369 -0.45623315 3.51964268 -4.8515625 2.33984375 C-7.25464008 1.95972057 -8.72058126 2.18522905 -11 3 C-12.73026102 4.47890069 -12.73026102 4.47890069 -14 6 C-14 3 -14 3 -12.82421875 1.33203125 C-9.17200896 -1.33478575 -4.31910224 -0.35796907 0 0 Z " fill="#A4985D" transform="translate(156,28)"/>
<path d="M0 0 C0.33 0 0.66 0 1 0 C0.3780319 6.33878126 -0.28578909 12.67099251 -1 19 C-1.18778233 20.68746861 -1.3752894 22.37496787 -1.5625 24.0625 C-1.706875 25.361875 -1.85125 26.66125 -2 28 C-2.66 28 -3.32 28 -4 28 C-4.2408831 21.55637696 -3.35299608 15.7896034 -2 9.5 C-1.80921875 8.5821875 -1.6184375 7.664375 -1.421875 6.71875 C-0.95496547 4.47758423 -0.48089308 2.23819917 0 0 Z " fill="#C0B26E" transform="translate(279,206)"/>
<path d="M0 0 C0.99 0 1.98 0 3 0 C3.90483637 5.36489595 4.12303662 10.50317457 4.0625 15.9375 C4.05798828 16.71673828 4.05347656 17.49597656 4.04882812 18.29882812 C4.03716908 20.19925268 4.01923877 22.09963706 4 24 C3.67 24 3.34 24 3 24 C2.01 16.08 1.02 8.16 0 0 Z " fill="#C8B86C" transform="translate(112,100)"/>
<path d="M0 0 C6.6 0.33 13.2 0.66 20 1 C20 2.65 20 4.3 20 6 C19.34 6 18.68 6 18 6 C18 5.34 18 4.68 18 4 C16.6078125 4.0928125 16.6078125 4.0928125 15.1875 4.1875 C9.91623039 4.2200387 5.00024125 2.51906063 0 1 C0 0.67 0 0.34 0 0 Z " fill="#FBEF9B" transform="translate(193,35)"/>
<path d="M0 0 C0.99 0.99 1.98 1.98 3 3 C2.85546875 5.48046875 2.85546875 5.48046875 2.1875 8.1875 C1.97480469 9.08855469 1.76210938 9.98960938 1.54296875 10.91796875 C1.36378906 11.60503906 1.18460937 12.29210937 1 13 C0.01 13.33 -0.98 13.66 -2 14 C-2 13.01 -2 12.02 -2 11 C-2.99 10.67 -3.98 10.34 -5 10 C-4.01 10 -3.02 10 -2 10 C-1.34 6.7 -0.68 3.4 0 0 Z " fill="#DACB7F" transform="translate(300,103)"/>
<path d="M0 0 C1.32 0 2.64 0 4 0 C3.67 0.99 3.34 1.98 3 3 C-3.64730869 5.93718291 -10.87023801 5.17799683 -18 5 C-14.40537669 2.74001405 -11.43404325 2.79131913 -7.25 2.875 C-5.49429688 2.90207031 -5.49429688 2.90207031 -3.703125 2.9296875 C-2.36507812 2.96449219 -2.36507812 2.96449219 -1 3 C-0.67 2.01 -0.34 1.02 0 0 Z " fill="#9C8B3E" transform="translate(202,96)"/>
<path d="M0 0 C0.99 0.33 1.98 0.66 3 1 C3 4.3 3 7.6 3 11 C2.01 11.33 1.02 11.66 0 12 C-1.29449495 8.11651516 -1.13203312 5.09302664 -1 1 C-0.67 0.67 -0.34 0.34 0 0 Z " fill="#1C1709" transform="translate(150,41)"/>
<path d="M0 0 C2.64 0.66 5.28 1.32 8 2 C8 2.66 8 3.32 8 4 C9.98 4 11.96 4 14 4 C14 4.66 14 5.32 14 6 C16.97 6.495 16.97 6.495 20 7 C14.7930573 8.81324122 10.02043625 6.70070991 5 5 C1.8125 3.4375 1.8125 3.4375 0 2 C0 1.34 0 0.68 0 0 Z " fill="#6082A7" transform="translate(168,209)"/>
<path d="M0 0 C1.47193312 2.94386623 0.84936173 5.37390036 0.5625 8.625 C0.40974609 10.40777344 0.40974609 10.40777344 0.25390625 12.2265625 C0.12822266 13.59941406 0.12822266 13.59941406 0 15 C-0.66 15 -1.32 15 -2 15 C-2.33 15.66 -2.66 16.32 -3 17 C-3 11.72 -3 6.44 -3 1 C-2.01 0.67 -1.02 0.34 0 0 Z " fill="#D3C582" transform="translate(212,73)"/>
<path d="M0 0 C8.04736706 0.32189468 14.80022076 3.69335982 22 7 C22 7.33 22 7.66 22 8 C16.52407304 7.60886236 12.71096235 6.60378389 7.8984375 3.98828125 C5.3620845 2.66791642 2.73315616 1.81994685 0 1 C0 0.67 0 0.34 0 0 Z " fill="#B9AD6F" transform="translate(176,35)"/>
<path d="M0 0 C0.33 0 0.66 0 1 0 C0.67 8.25 0.34 16.5 0 25 C-0.33 25 -0.66 25 -1 25 C-1.82351864 18.61773055 -2.12086218 12.43255401 -2 6 C-1.67 6 -1.34 6 -1 6 C-0.67 4.02 -0.34 2.04 0 0 Z " fill="#B3A55F" transform="translate(119,147)"/>
<path d="M0 0 C4.95 0 9.9 0 15 0 C15 0.66 15 1.32 15 2 C15.99 2.33 16.98 2.66 18 3 C17.67 4.98 17.34 6.96 17 9 C16.67 9 16.34 9 16 9 C15.67 7.35 15.34 5.7 15 4 C9.9943454 2.68272247 5.13503344 1.64187918 0 1 C0 0.67 0 0.34 0 0 Z " fill="#E6D587" transform="translate(196,39)"/>
<path d="M0 0 C6.86036401 0.65965039 13.34443923 2.2362764 20 4 C20 4.33 20 4.66 20 5 C13.07 4.505 13.07 4.505 6 4 C6 3.34 6 2.68 6 2 C4.02 2 2.04 2 0 2 C0 1.34 0 0.68 0 0 Z " fill="#8A9EA1" transform="translate(176,211)"/>
<path d="M0 0 C0.66 0 1.32 0 2 0 C2.48452463 6.94485303 0.69287491 13.2990368 -1 20 C-1.33 20 -1.66 20 -2 20 C-1.85879984 17.41633755 -1.71221667 14.83317115 -1.5625 12.25 C-1.52318359 11.52039063 -1.48386719 10.79078125 -1.44335938 10.0390625 C-1.23852902 6.5727027 -0.9147998 3.34666974 0 0 Z " fill="#BAAC67" transform="translate(296,114)"/>
<path d="M0 0 C4.62 0 9.24 0 14 0 C13.34 1.32 12.68 2.64 12 4 C8.7 3.67 5.4 3.34 2 3 C2 2.34 2 1.68 2 1 C1.34 0.67 0.68 0.34 0 0 Z " fill="#789CBE" transform="translate(202,219)"/>
<path d="M0 0 C2.3125 3.0625 2.3125 3.0625 4 6 C2.0625 5.1875 2.0625 5.1875 0 4 C-0.33 3.01 -0.66 2.02 -1 1 C-2.43791516 1.14168137 -3.8753237 1.28851043 -5.3125 1.4375 C-6.11300781 1.51871094 -6.91351563 1.59992188 -7.73828125 1.68359375 C-10.16087179 1.95265693 -10.16087179 1.95265693 -13 3 C-13.99 2.34 -14.98 1.68 -16 1 C-14.27327966 0.63409254 -12.54346345 0.28277805 -10.8125 -0.0625 C-9.36810547 -0.35833984 -9.36810547 -0.35833984 -7.89453125 -0.66015625 C-4.89428678 -1.01241167 -2.86485593 -0.94187044 0 0 Z " fill="#F6DA4D" transform="translate(144,94)"/>
<path d="M0 0 C0.33 0 0.66 0 1 0 C1.48452463 6.94485303 -0.30712509 13.2990368 -2 20 C-2.33 20 -2.66 20 -3 20 C-3.027193 18.41676312 -3.04648306 16.83338938 -3.0625 15.25 C-3.07410156 14.36828125 -3.08570313 13.4865625 -3.09765625 12.578125 C-3.00826198 10.2181162 -2.66912821 8.25501476 -2 6 C-1.34 6 -0.68 6 0 6 C0 4.02 0 2.04 0 0 Z " fill="#BAAB66" transform="translate(293,134)"/>
<path d="M0 0 C0.33 0 0.66 0 1 0 C1.33 5.28 1.66 10.56 2 16 C1.34 16 0.68 16 0 16 C-1.08489672 12.74530985 -1.13323992 10.29456791 -1.125 6.875 C-1.12757813 5.79992187 -1.13015625 4.72484375 -1.1328125 3.6171875 C-1 1 -1 1 0 0 Z " fill="#AC9E66" transform="translate(141,75)"/>
<path d="M0 0 C6.70126536 -0.48736475 11.06561592 0.92291196 17 4 C17 4.33 17 4.66 17 5 C15.56208484 4.85831863 14.1246763 4.71148957 12.6875 4.5625 C11.88699219 4.48128906 11.08648437 4.40007813 10.26171875 4.31640625 C8 4 8 4 5 3 C5 2.34 5 1.68 5 1 C3.35 1 1.7 1 0 1 C0 0.67 0 0.34 0 0 Z " fill="#A59A62" transform="translate(176,38)"/>
<path d="M0 0 C1.74965358 -0.05429959 3.49979787 -0.09292823 5.25 -0.125 C6.22453125 -0.14820312 7.1990625 -0.17140625 8.203125 -0.1953125 C11.0196498 0.00137219 12.60949036 0.55431084 15 2 C13.62714844 2.07347656 13.62714844 2.07347656 12.2265625 2.1484375 C11.03804687 2.22320312 9.84953125 2.29796875 8.625 2.375 C6.84996094 2.47941406 6.84996094 2.47941406 5.0390625 2.5859375 C1.89437681 2.70217346 1.89437681 2.70217346 0 5 C0 3.35 0 1.7 0 0 Z " fill="#AA9D5D" transform="translate(73,97)"/>
<path d="M0 0 C0.33 0 0.66 0 1 0 C1.11044961 6.73742646 0.70132913 13.29980211 0 20 C-0.33 20 -0.66 20 -1 20 C-1.33 15.05 -1.66 10.1 -2 5 C-1.67 5 -1.34 5 -1 5 C-0.67 3.35 -0.34 1.7 0 0 Z " fill="#B5A55F" transform="translate(121,168)"/>
<path d="M0 0 C0.66 0 1.32 0 2 0 C2.67154933 1.28913487 3.33708859 2.58140204 4 3.875 C4.37125 4.59429687 4.7425 5.31359375 5.125 6.0546875 C6 8 6 8 6 10 C5.01 10 4.02 10 3 10 C0.96564469 6.27034861 0 4.33094958 0 0 Z " fill="#231F0E" transform="translate(147,74)"/>
<path d="M0 0 C6.63093294 0.34773428 12.053928 0.96089654 18 4 C18 4.33 18 4.66 18 5 C11.69632197 4.41632611 6.01339937 2.95928381 0 1 C0 0.67 0 0.34 0 0 Z " fill="#7293B0" transform="translate(142,203)"/>
<path d="M0 0 C5.27315333 0.4452885 10.01770224 1.08373163 15 3 C11.12398219 4.45350668 6.92998724 4.12977046 3 3 C1.25390625 1.453125 1.25390625 1.453125 0 0 Z " fill="#55769B" transform="translate(189,217)"/>
<path d="M0 0 C0 0.66 0 1.32 0 2 C-5.12583611 2.10251672 -9.94997778 2.03590199 -15 1 C-15 0.67 -15 0.34 -15 0 C-13.25093341 -0.19601608 -11.50068154 -0.38147403 -9.75 -0.5625 C-8.77546875 -0.66691406 -7.8009375 -0.77132812 -6.796875 -0.87890625 C-4.2368648 -0.98974468 -2.41851841 -0.77738092 0 0 Z " fill="#EFE28E" transform="translate(295,110)"/>
<path d="M0 0 C0.33 0 0.66 0 1 0 C1.375 2.0625 1.375 2.0625 1 5 C-0.79177109 7.53572282 -2.84238121 9.77174488 -5 12 C-5.66 11.67 -6.32 11.34 -7 11 C-6.57847656 10.45730469 -6.15695313 9.91460937 -5.72265625 9.35546875 C-5.17480469 8.64003906 -4.62695312 7.92460938 -4.0625 7.1875 C-3.51722656 6.47980469 -2.97195312 5.77210937 -2.41015625 5.04296875 C-0.83143752 2.95874948 -0.83143752 2.95874948 0 0 Z " fill="#78714B" transform="translate(172,76)"/>
<path d="M0 0 C2.97 0 5.94 0 9 0 C9 1.32 9 2.64 9 4 C8.01 4.33 7.02 4.66 6 5 C6 4.34 6 3.68 6 3 C5.34 3 4.68 3 4 3 C4 2.34 4 1.68 4 1 C2.68 0.67 1.36 0.34 0 0 Z " fill="#B5A965" transform="translate(202,88)"/>
<path d="M0 0 C2.9375 0.8125 2.9375 0.8125 6 2 C6.33 2.99 6.66 3.98 7 5 C6.01 5 5.02 5 4 5 C4 4.34 4 3.68 4 3 C2.35 3 0.7 3 -1 3 C-0.67 2.01 -0.34 1.02 0 0 Z " fill="#93884D" transform="translate(201,91)"/>
<path d="M0 0 C0 2.77996107 -0.21297929 5.42492567 -0.5 8.1875 C-0.5928125 9.08855469 -0.685625 9.98960938 -0.78125 10.91796875 C-0.88953125 11.94857422 -0.88953125 11.94857422 -1 13 C-1.33 13 -1.66 13 -2 13 C-2.33 9.04 -2.66 5.08 -3 1 C-2.01 0.67 -1.02 0.34 0 0 Z " fill="#DECF7E" transform="translate(212,73)"/>
</svg>
