<svg width="42" height="42" viewBox="0 0 42 42" fill="none" xmlns="http://www.w3.org/2000/svg">
  <circle cx="21" cy="21" r="20" fill="#FAFDFF" stroke="#004976" stroke-width="1"/>
  <circle cx="21" cy="18" r="9" fill="#FFE7EF"/>
  <path d="M11.5 34.5C13.2 27.8 17.1 24.5 21 24.5C24.9 24.5 28.8 27.8 30.5 34.5" fill="#FFE7EF"/>
  <path d="M15 16.5C15.9 12.3 18.1 10.2 21.5 10.2C24.7 10.2 27.1 12.2 28.5 16.2C26.2 14.6 24.1 14.1 22.3 14.8C20.3 15.5 19.4 17.4 19.7 20.6C17.8 20.1 16.2 18.7 15 16.5Z" fill="#FBC0C8"/>
  <circle cx="17.8" cy="18.7" r="1" fill="#004976"/>
  <circle cx="24.2" cy="18.7" r="1" fill="#004976"/>
  <path d="M18.5 23.2C20.1 24.3 22 24.3 23.6 23.2" stroke="#004976" stroke-linecap="round"/>
</svg>
