<svg width="42" height="42" viewBox="0 0 42 42" fill="none" xmlns="http://www.w3.org/2000/svg">
  <circle cx="19" cy="6" r="5" fill="#004976"/>
  <path d="M18.5 12C10.5 14.2 7.2 21.6 11 29.2C12.9 33 16.8 36.1 22.6 38.6C20.8 35.8 18.6 32.2 17.4 27.5C15.9 21.7 16.3 16.7 18.5 12Z" fill="#004976"/>
  <path d="M24.8 3.8C31.8 7.1 36.1 13.6 36.1 21.1C36.1 28.2 32.2 34.4 26 38C28.9 31.5 29.1 25 26.6 18.7C25.2 15.2 23.1 12.3 20.4 10.1C22.1 8.6 23.5 6.5 24.8 3.8Z" fill="#FF96A3"/>
  <path d="M23.8 15.3C27.8 17.7 29.2 22.3 27.2 26.3C25.8 29.1 22.8 31.2 18.2 32.5C20.7 28.7 21.2 24.5 19.5 19.9C20.9 19.1 22.3 17.5 23.8 15.3Z" fill="#79C9F2"/>
  <circle cx="25.6" cy="12.8" r="2.3" fill="#004976"/>
</svg>
